<svg xmlns="http://www.w3.org/2000/svg" width="200" height="200" class="icon" p-id="3069" t="1596027431611" version="1.1" viewBox="0 0 1024 1024"><defs><style type="text/css"/></defs><path fill="#2C2C2C" d="M512 809.103a24.202 24.202 0 0 1-24.182-24.176A24.202 24.202 0 0 1 512 760.75c13.327 0 24.166 10.84 24.166 24.177S525.327 809.103 512 809.103z" p-id="3070"/><path fill="#2C2C2C" d="M754.089 894.182H270.305c-39.813 0-72.207-32.389-72.207-72.207V202.24c0-39.813 32.394-72.207 72.207-72.207H754.09c39.813 0 72.207 32.394 72.207 72.207v619.735c0 39.813-32.389 72.207-72.207 72.207zM270.305 182.287a19.978 19.978 0 0 0-19.952 19.953v619.735a19.973 19.973 0 0 0 19.952 19.953H754.09a19.973 19.973 0 0 0 19.953-19.953V202.24a19.973 19.973 0 0 0-19.953-19.953H270.305z" p-id="3071"/></svg>