<svg xmlns="http://www.w3.org/2000/svg" width="200" height="200" class="icon" p-id="5284" t="1596946341443" version="1.1" viewBox="0 0 1024 1024"><defs><style type="text/css"/></defs><path d="M853.333333 170.666667H170.666667a85.333333 85.333333 0 0 0-85.333334 85.333333v512a85.333333 85.333333 0 0 0 85.333334 85.333333h682.666666a85.333333 85.333333 0 0 0 85.333334-85.333333V256a85.333333 85.333333 0 0 0-85.333334-85.333333z m0 597.333333H170.666667V341.333333h682.666666zM277.333333 682.666667h170.666667a21.333333 21.333333 0 0 0 21.333333-21.333334v-213.333333a21.333333 21.333333 0 0 0-21.333333-21.333333h-170.666667a21.333333 21.333333 0 0 0-21.333333 21.333333v213.333333a21.333333 21.333333 0 0 0 21.333333 21.333334z m298.666667-170.666667h170.666667a21.333333 21.333333 0 0 0 21.333333-21.333333v-42.666667a21.333333 21.333333 0 0 0-21.333333-21.333333h-170.666667a21.333333 21.333333 0 0 0-21.333333 21.333333v42.666667a21.333333 21.333333 0 0 0 21.333333 21.333333z m0 170.666667h85.333333a21.333333 21.333333 0 0 0 21.333334-21.333334v-42.666666a21.333333 21.333333 0 0 0-21.333334-21.333334h-85.333333a21.333333 21.333333 0 0 0-21.333333 21.333334v42.666666a21.333333 21.333333 0 0 0 21.333333 21.333334z" p-id="5285"/></svg>